<svg width="401" height="891" viewBox="0 0 401 891" fill="none" xmlns="http://www.w3.org/2000/svg">
<rect y="0.970215" width="401" height="889.347" fill="#F1F1F1"/>
<path d="M279.36 397.472V421.392L294 426.992V433.712L241.2 413.152V405.552L294 385.072V391.872L279.36 397.472ZM273.36 399.792L254.64 406.912L247.28 409.392V409.552L254.4 411.872L273.36 419.072V399.792ZM294 336.899V344.819L258.64 366.899L248.24 372.499V372.579L256.72 372.259H294V378.339H241.2V370.419L276.4 348.419L286.96 342.739V342.659L278.48 342.979H241.2V336.899H294ZM294 282.149V290.069L258.64 312.149L248.24 317.749V317.829L256.72 317.509H294V323.589H241.2V315.669L276.4 293.669L286.96 287.989V287.909L278.48 288.229H241.2V282.149H294ZM279.36 239.159V263.079L294 268.679V275.399L241.2 254.839V247.239L294 226.759V233.559L279.36 239.159ZM273.36 241.479L254.64 248.599L247.28 251.079V251.239L254.4 253.559L273.36 260.759V241.479Z" fill="black"/>
<path d="M316.2 431.152V412.352C316.2 406.272 317.48 401.765 320.04 398.832C322.547 395.845 326.12 394.352 330.76 394.352C333.533 394.352 335.987 395.152 338.12 396.752C340.253 398.299 341.587 400.459 342.12 403.232H342.2C342.787 400.139 344.2 397.659 346.44 395.792C348.68 393.925 351.267 392.992 354.2 392.992C358.733 392.992 362.333 394.699 365 398.112C367.667 401.525 369 406.299 369 412.432V431.152H316.2ZM339.4 412.272C339.4 408.485 338.707 405.685 337.32 403.872C335.88 402.005 333.693 401.072 330.76 401.072C325.053 401.072 322.2 404.805 322.2 412.272V424.752H339.4V412.272ZM363 410.912C363 407.179 362.253 404.379 360.76 402.512C359.213 400.645 357.027 399.712 354.2 399.712C351.373 399.712 349.213 400.645 347.72 402.512C346.173 404.379 345.4 407.179 345.4 410.912V424.752H363V410.912ZM363 344.646H369V382.886H316.2V345.846H322.2V376.486H339.24V352.646H345.24V376.486H363V344.646ZM369 294.431V302.351L333.64 324.431L323.24 330.031V330.111L331.72 329.791H369V335.871H316.2V327.951L351.4 305.951L361.96 300.271V300.191L353.48 300.511H316.2V294.431H369ZM316.2 264.081C316.2 255.761 318.493 249.254 323.08 244.561C327.667 239.867 334.173 237.521 342.6 237.521C351.027 237.521 357.533 239.867 362.12 244.561C366.707 249.254 369 255.761 369 264.081V281.121H316.2V264.081ZM363 263.441C363 257.414 361.213 252.721 357.64 249.361C354.013 245.947 349 244.241 342.6 244.241C336.2 244.241 331.213 245.947 327.64 249.361C324.013 252.721 322.2 257.414 322.2 263.441V274.721H363V263.441ZM354.36 199.581V223.501L369 229.101V235.821L316.2 215.261V207.661L369 187.181V193.981L354.36 199.581ZM348.36 201.901L329.64 209.021L322.28 211.501V211.661L329.4 213.981L348.36 221.181V201.901ZM316.2 139.009H369V145.409H345.24V174.049H369V180.449H316.2V174.049H339.24V145.409H316.2V139.009ZM354.36 96.0189V119.939L369 125.539V132.259L316.2 111.699V104.099L369 83.6189V90.4189L354.36 96.0189ZM348.36 98.3389L329.64 105.459L322.28 107.939V108.099L329.4 110.419L348.36 117.619V98.3389ZM369 35.4464V43.3664L333.64 65.4464L323.24 71.0464V71.1264L331.72 70.8064H369V76.8864H316.2V68.9664L351.4 46.9664L361.96 41.2864V41.2064L353.48 41.5264H316.2V35.4464H369Z" fill="black"/>
<path d="M41.698 509.6C41.078 511.28 40.058 512.6 38.638 513.56C37.218 514.5 35.578 514.97 33.718 514.97C31.858 514.97 30.238 514.56 28.858 513.74C27.478 512.9 26.408 511.72 25.648 510.2C24.908 508.66 24.538 506.85 24.538 504.77C24.538 502.71 24.908 500.91 25.648 499.37C26.408 497.83 27.478 496.65 28.858 495.83C30.238 494.99 31.838 494.57 33.658 494.57C35.558 494.57 37.148 494.96 38.428 495.74C39.728 496.52 40.698 497.67 41.338 499.19L38.968 500.3C38.528 499.14 37.888 498.27 37.048 497.69C36.208 497.11 35.138 496.82 33.838 496.82C32.478 496.82 31.288 497.14 30.268 497.78C29.248 498.4 28.458 499.31 27.898 500.51C27.338 501.71 27.058 503.13 27.058 504.77C27.058 507.25 27.648 509.2 28.828 510.62C30.028 512.02 31.658 512.72 33.718 512.72C35.058 512.72 36.218 512.38 37.198 511.7C38.178 511.02 38.878 510.02 39.298 508.7L41.698 509.6ZM51.9445 506.45H47.2045V514.67H44.8045V494.87H52.3045C54.3245 494.87 55.9445 495.39 57.1645 496.43C58.3845 497.47 58.9945 498.88 58.9945 500.66C58.9945 502.06 58.6045 503.24 57.8245 504.2C57.0445 505.16 55.9745 505.82 54.6145 506.18L60.1945 514.67H57.3445L51.9445 506.45ZM47.2045 504.2H52.2745C55.0745 504.2 56.4745 503.02 56.4745 500.66C56.4745 498.3 55.0745 497.12 52.2745 497.12H47.2045V504.2ZM77.5956 512.42V514.67H63.2556V494.87H77.1456V497.12H65.6556V503.51H74.5956V505.76H65.6556V512.42H77.5956ZM92.0165 509.18H83.0465L80.9465 514.67H78.4265L86.1365 494.87H88.9865L96.6665 514.67H94.1165L92.0165 509.18ZM91.1465 506.93L88.4765 499.91L87.5465 497.15H87.4865L86.6165 499.82L83.9165 506.93H91.1465ZM110.416 497.12H103.516V514.67H101.116V497.12H94.2159V494.87H110.416V497.12ZM115.501 514.67H113.101V494.87H115.501V514.67ZM128.338 514.67H125.608L118.078 494.87H120.658L125.698 508.55L126.958 512.48L128.218 508.58L133.258 494.87H135.838L128.338 514.67ZM152.771 512.42V514.67H138.431V494.87H152.321V497.12H140.831V503.51H149.771V505.76H140.831V512.42H152.771ZM171.177 494.87C174.297 494.87 176.737 495.73 178.497 497.45C180.257 499.17 181.137 501.61 181.137 504.77C181.137 507.93 180.257 510.37 178.497 512.09C176.737 513.81 174.297 514.67 171.177 514.67H164.787V494.87H171.177ZM171.417 512.42C173.677 512.42 175.437 511.75 176.697 510.41C177.977 509.05 178.617 507.17 178.617 504.77C178.617 502.37 177.977 500.5 176.697 499.16C175.437 497.8 173.677 497.12 171.417 497.12H167.187V512.42H171.417ZM199.248 512.42V514.67H184.908V494.87H198.798V497.12H187.308V503.51H196.248V505.76H187.308V512.42H199.248ZM210.399 514.67H207.669L200.139 494.87H202.719L207.759 508.55L209.019 512.48L210.279 508.58L215.319 494.87H217.899L210.399 514.67ZM234.832 512.42V514.67H220.492V494.87H234.382V497.12H222.892V503.51H231.832V505.76H222.892V512.42H234.832ZM251.863 512.42V514.67H238.123V494.87H240.523V512.42H251.863ZM261.829 494.57C263.689 494.57 265.309 494.99 266.689 495.83C268.069 496.65 269.129 497.83 269.869 499.37C270.629 500.89 271.009 502.69 271.009 504.77C271.009 506.85 270.629 508.66 269.869 510.2C269.129 511.72 268.069 512.9 266.689 513.74C265.309 514.56 263.689 514.97 261.829 514.97C259.969 514.97 258.349 514.56 256.969 513.74C255.589 512.9 254.519 511.72 253.759 510.2C253.019 508.66 252.649 506.85 252.649 504.77C252.649 502.69 253.019 500.89 253.759 499.37C254.519 497.83 255.589 496.65 256.969 495.83C258.349 494.99 259.969 494.57 261.829 494.57ZM261.829 496.82C259.769 496.82 258.139 497.53 256.939 498.95C255.759 500.35 255.169 502.29 255.169 504.77C255.169 507.25 255.759 509.2 256.939 510.62C258.139 512.02 259.769 512.72 261.829 512.72C263.889 512.72 265.509 512.02 266.689 510.62C267.889 509.2 268.489 507.25 268.489 504.77C268.489 502.29 267.889 500.35 266.689 498.95C265.509 497.53 263.889 496.82 261.829 496.82ZM281.781 494.87C283.781 494.87 285.391 495.42 286.611 496.52C287.831 497.6 288.441 499.06 288.441 500.9C288.441 502.74 287.831 504.21 286.611 505.31C285.391 506.39 283.781 506.93 281.781 506.93H277.191V514.67H274.791V494.87H281.781ZM281.421 504.68C282.961 504.68 284.091 504.37 284.811 503.75C285.551 503.11 285.921 502.16 285.921 500.9C285.921 499.64 285.551 498.7 284.811 498.08C284.091 497.44 282.961 497.12 281.421 497.12H277.191V504.68H281.421ZM305.941 512.42V514.67H291.601V494.87H305.491V497.12H294.001V503.51H302.941V505.76H294.001V512.42H305.941ZM316.372 506.45H311.632V514.67H309.232V494.87H316.732C318.752 494.87 320.372 495.39 321.592 496.43C322.812 497.47 323.422 498.88 323.422 500.66C323.422 502.06 323.032 503.24 322.252 504.2C321.472 505.16 320.402 505.82 319.042 506.18L324.622 514.67H321.772L316.372 506.45ZM311.632 504.2H316.702C319.502 504.2 320.902 503.02 320.902 500.66C320.902 498.3 319.502 497.12 316.702 497.12H311.632V504.2Z" fill="black"/>
<path d="M31.9 565H28.93L23.08 545.2H25.66L30.43 563.11L35.11 545.2H37.84L42.52 563.17L47.32 545.2H49.75L43.93 565H40.96L37.45 552.16L36.43 547.69H36.4L35.38 552.16L31.9 565ZM66.9081 562.75V565H52.5681V545.2H66.4581V547.45H54.9681V553.84H63.9081V556.09H54.9681V562.75H66.9081ZM70.199 545.2H77.249C79.529 545.2 81.219 545.68 82.319 546.64C83.439 547.58 83.999 548.92 83.999 550.66C83.999 551.7 83.699 552.62 83.099 553.42C82.519 554.22 81.709 554.72 80.669 554.92V554.95C81.829 555.17 82.759 555.7 83.459 556.54C84.159 557.38 84.509 558.35 84.509 559.45C84.509 561.15 83.869 562.5 82.589 563.5C81.309 564.5 79.519 565 77.219 565H70.199V545.2ZM77.279 553.9C78.699 553.9 79.749 553.64 80.429 553.12C81.129 552.58 81.479 551.76 81.479 550.66C81.479 548.52 80.079 547.45 77.279 547.45H72.599V553.9H77.279ZM77.789 562.75C79.189 562.75 80.239 562.47 80.939 561.91C81.639 561.33 81.989 560.51 81.989 559.45C81.989 558.39 81.639 557.58 80.939 557.02C80.239 556.44 79.189 556.15 77.789 556.15H72.599V562.75H77.789ZM103.413 545.2C106.533 545.2 108.973 546.06 110.733 547.78C112.493 549.5 113.373 551.94 113.373 555.1C113.373 558.26 112.493 560.7 110.733 562.42C108.973 564.14 106.533 565 103.413 565H97.0232V545.2H103.413ZM103.653 562.75C105.913 562.75 107.673 562.08 108.933 560.74C110.213 559.38 110.853 557.5 110.853 555.1C110.853 552.7 110.213 550.83 108.933 549.49C107.673 548.13 105.913 547.45 103.653 547.45H99.4232V562.75H103.653ZM131.484 562.75V565H117.144V545.2H131.034V547.45H119.544V553.84H128.484V556.09H119.544V562.75H131.484ZM141.135 544.9C144.675 544.9 147.225 546.3 148.785 549.1L146.715 550.78C146.115 549.46 145.395 548.53 144.555 547.99C143.735 547.43 142.605 547.15 141.165 547.15C139.645 547.15 138.445 547.47 137.565 548.11C136.705 548.73 136.275 549.53 136.275 550.51C136.275 551.15 136.445 551.68 136.785 552.1C137.125 552.52 137.685 552.89 138.465 553.21C139.265 553.51 140.365 553.78 141.765 554.02C144.385 554.46 146.235 555.12 147.315 556C148.415 556.88 148.965 558.1 148.965 559.66C148.965 560.78 148.645 561.77 148.005 562.63C147.385 563.47 146.495 564.13 145.335 564.61C144.175 565.07 142.835 565.3 141.315 565.3C139.315 565.3 137.605 564.91 136.185 564.13C134.785 563.35 133.715 562.31 132.975 561.01L135.045 559.33C135.585 560.51 136.375 561.43 137.415 562.09C138.475 562.73 139.795 563.05 141.375 563.05C142.935 563.05 144.175 562.77 145.095 562.21C146.015 561.63 146.475 560.82 146.475 559.78C146.475 558.9 146.075 558.2 145.275 557.68C144.475 557.16 143.055 556.72 141.015 556.36C138.375 555.9 136.505 555.24 135.405 554.38C134.305 553.52 133.755 552.32 133.755 550.78C133.755 549.72 134.055 548.74 134.655 547.84C135.255 546.94 136.115 546.23 137.235 545.71C138.355 545.17 139.655 544.9 141.135 544.9ZM154.894 565H152.494V545.2H154.894V565ZM175.981 555.01V565H174.181L174.091 562.33C173.511 563.29 172.691 564.03 171.631 564.55C170.591 565.05 169.331 565.3 167.851 565.3C165.991 565.3 164.371 564.89 162.991 564.07C161.611 563.23 160.541 562.05 159.781 560.53C159.041 558.99 158.671 557.18 158.671 555.1C158.671 553.04 159.051 551.24 159.811 549.7C160.591 548.16 161.671 546.98 163.051 546.16C164.451 545.32 166.071 544.9 167.911 544.9C169.871 544.9 171.481 545.27 172.741 546.01C174.021 546.75 175.051 547.89 175.831 549.43L173.641 550.63C173.201 549.51 172.481 548.65 171.481 548.05C170.501 547.45 169.311 547.15 167.911 547.15C166.571 547.15 165.391 547.47 164.371 548.11C163.371 548.75 162.591 549.67 162.031 550.87C161.471 552.05 161.191 553.46 161.191 555.1C161.191 557.62 161.771 559.58 162.931 560.98C164.091 562.36 165.761 563.05 167.941 563.05C169.661 563.05 171.061 562.61 172.141 561.73C173.241 560.85 173.791 559.59 173.791 557.95V557.26H167.491V555.01H175.981ZM195.62 565H192.65L184.37 551.74L182.27 547.84H182.24L182.36 551.02V565H180.08V545.2H183.05L191.3 558.4L193.43 562.36H193.46L193.34 559.18V545.2H195.62V565ZM36.97 596.46C37.75 597.28 38.4 597.83 38.92 598.11C39.46 598.37 40.09 598.5 40.81 598.5L40.21 600.3C39.41 600.3 38.69 600.15 38.05 599.85C37.41 599.55 36.62 598.93 35.68 597.99C34.9 598.73 34.01 599.3 33.01 599.7C32.01 600.1 30.92 600.3 29.74 600.3C28.52 600.3 27.43 600.08 26.47 599.64C25.51 599.2 24.76 598.59 24.22 597.81C23.7 597.03 23.44 596.15 23.44 595.17C23.44 593.93 23.8 592.83 24.52 591.87C25.26 590.89 26.48 589.95 28.18 589.05C27.32 587.93 26.72 587.04 26.38 586.38C26.06 585.72 25.9 585.02 25.9 584.28C25.9 583.54 26.08 582.84 26.44 582.18C26.8 581.5 27.33 580.95 28.03 580.53C28.73 580.11 29.57 579.9 30.55 579.9C31.85 579.9 32.94 580.24 33.82 580.92C34.72 581.58 35.17 582.6 35.17 583.98C35.17 585.12 34.9 586.11 34.36 586.95C33.84 587.79 32.81 588.66 31.27 589.56C31.61 590.02 32.27 590.85 33.25 592.05L34.33 593.4L35.65 594.99C36.49 593.61 36.91 592 36.91 590.16C36.91 589.8 36.9 589.53 36.88 589.35L38.8 589.59L38.83 590.31C38.83 591.43 38.67 592.52 38.35 593.58C38.03 594.62 37.57 595.58 36.97 596.46ZM30.52 581.94C29.76 581.94 29.17 582.16 28.75 582.6C28.35 583.04 28.15 583.59 28.15 584.25C28.15 584.77 28.27 585.28 28.51 585.78C28.75 586.26 29.28 587.03 30.1 588.09C31.32 587.43 32.11 586.79 32.47 586.17C32.85 585.55 33.04 584.84 33.04 584.04C33.04 582.64 32.2 581.94 30.52 581.94ZM29.65 598.35C30.55 598.35 31.4 598.2 32.2 597.9C33 597.6 33.72 597.16 34.36 596.58C33.68 595.84 32.77 594.76 31.63 593.34L29.41 590.61C27.95 591.45 26.96 592.2 26.44 592.86C25.94 593.5 25.69 594.21 25.69 594.99C25.69 595.95 26.08 596.75 26.86 597.39C27.64 598.03 28.57 598.35 29.65 598.35ZM67.116 594.93C66.496 596.61 65.476 597.93 64.056 598.89C62.636 599.83 60.996 600.3 59.136 600.3C57.276 600.3 55.656 599.89 54.276 599.07C52.896 598.23 51.826 597.05 51.066 595.53C50.326 593.99 49.956 592.18 49.956 590.1C49.956 588.04 50.326 586.24 51.066 584.7C51.826 583.16 52.896 581.98 54.276 581.16C55.656 580.32 57.256 579.9 59.076 579.9C60.976 579.9 62.566 580.29 63.846 581.07C65.146 581.85 66.116 583 66.756 584.52L64.386 585.63C63.946 584.47 63.306 583.6 62.466 583.02C61.626 582.44 60.556 582.15 59.256 582.15C57.896 582.15 56.706 582.47 55.686 583.11C54.666 583.73 53.876 584.64 53.316 585.84C52.756 587.04 52.476 588.46 52.476 590.1C52.476 592.58 53.066 594.53 54.246 595.95C55.446 597.35 57.076 598.05 59.136 598.05C60.476 598.05 61.636 597.71 62.616 597.03C63.596 596.35 64.296 595.35 64.716 594.03L67.116 594.93ZM78.2024 579.9C80.0624 579.9 81.6824 580.32 83.0624 581.16C84.4424 581.98 85.5024 583.16 86.2424 584.7C87.0024 586.22 87.3824 588.02 87.3824 590.1C87.3824 592.18 87.0024 593.99 86.2424 595.53C85.5024 597.05 84.4424 598.23 83.0624 599.07C81.6824 599.89 80.0624 600.3 78.2024 600.3C76.3424 600.3 74.7224 599.89 73.3424 599.07C71.9624 598.23 70.8924 597.05 70.1324 595.53C69.3924 593.99 69.0224 592.18 69.0224 590.1C69.0224 588.02 69.3924 586.22 70.1324 584.7C70.8924 583.16 71.9624 581.98 73.3424 581.16C74.7224 580.32 76.3424 579.9 78.2024 579.9ZM78.2024 582.15C76.1424 582.15 74.5124 582.86 73.3124 584.28C72.1324 585.68 71.5424 587.62 71.5424 590.1C71.5424 592.58 72.1324 594.53 73.3124 595.95C74.5124 597.35 76.1424 598.05 78.2024 598.05C80.2624 598.05 81.8824 597.35 83.0624 595.95C84.2624 594.53 84.8624 592.58 84.8624 590.1C84.8624 587.62 84.2624 585.68 83.0624 584.28C81.8824 582.86 80.2624 582.15 78.2024 582.15ZM97.5538 580.2C100.674 580.2 103.114 581.06 104.874 582.78C106.634 584.5 107.514 586.94 107.514 590.1C107.514 593.26 106.634 595.7 104.874 597.42C103.114 599.14 100.674 600 97.5538 600H91.1638V580.2H97.5538ZM97.7938 597.75C100.054 597.75 101.814 597.08 103.074 595.74C104.354 594.38 104.994 592.5 104.994 590.1C104.994 587.7 104.354 585.83 103.074 584.49C101.814 583.13 100.054 582.45 97.7938 582.45H93.5638V597.75H97.7938ZM125.625 597.75V600H111.285V580.2H125.175V582.45H113.685V588.84H122.625V591.09H113.685V597.75H125.625Z" fill="black"/>
<path d="M30.22 769.25C32.08 769.25 33.7 769.67 35.08 770.51C36.46 771.33 37.52 772.51 38.26 774.05C39.02 775.57 39.4 777.37 39.4 779.45C39.4 781.53 39.02 783.34 38.26 784.88C37.52 786.4 36.46 787.58 35.08 788.42C33.7 789.24 32.08 789.65 30.22 789.65C28.36 789.65 26.74 789.24 25.36 788.42C23.98 787.58 22.91 786.4 22.15 784.88C21.41 783.34 21.04 781.53 21.04 779.45C21.04 777.37 21.41 775.57 22.15 774.05C22.91 772.51 23.98 771.33 25.36 770.51C26.74 769.67 28.36 769.25 30.22 769.25ZM30.22 771.5C28.16 771.5 26.53 772.21 25.33 773.63C24.15 775.03 23.56 776.97 23.56 779.45C23.56 781.93 24.15 783.88 25.33 785.3C26.53 786.7 28.16 787.4 30.22 787.4C32.28 787.4 33.9 786.7 35.08 785.3C36.28 783.88 36.88 781.93 36.88 779.45C36.88 776.97 36.28 775.03 35.08 773.63C33.9 772.21 32.28 771.5 30.22 771.5ZM50.1714 769.55C52.1714 769.55 53.7814 770.1 55.0014 771.2C56.2214 772.28 56.8314 773.74 56.8314 775.58C56.8314 777.42 56.2214 778.89 55.0014 779.99C53.7814 781.07 52.1714 781.61 50.1714 781.61H45.5814V789.35H43.1814V769.55H50.1714ZM49.8114 779.36C51.3514 779.36 52.4814 779.05 53.2014 778.43C53.9414 777.79 54.3114 776.84 54.3114 775.58C54.3114 774.32 53.9414 773.38 53.2014 772.76C52.4814 772.12 51.3514 771.8 49.8114 771.8H45.5814V779.36H49.8114ZM74.332 787.1V789.35H59.992V769.55H73.882V771.8H62.392V778.19H71.332V780.44H62.392V787.1H74.332ZM93.1628 789.35H90.1928L81.9128 776.09L79.8128 772.19H79.7828L79.9028 775.37V789.35H77.6228V769.55H80.5928L88.8428 782.75L90.9728 786.71H91.0028L90.8828 783.53V769.55H93.1628V789.35ZM119.978 771.8H113.078V789.35H110.678V771.8H103.778V769.55H119.978V771.8ZM129.97 769.25C131.83 769.25 133.45 769.67 134.83 770.51C136.21 771.33 137.27 772.51 138.01 774.05C138.77 775.57 139.15 777.37 139.15 779.45C139.15 781.53 138.77 783.34 138.01 784.88C137.27 786.4 136.21 787.58 134.83 788.42C133.45 789.24 131.83 789.65 129.97 789.65C128.11 789.65 126.49 789.24 125.11 788.42C123.73 787.58 122.66 786.4 121.9 784.88C121.16 783.34 120.79 781.53 120.79 779.45C120.79 777.37 121.16 775.57 121.9 774.05C122.66 772.51 123.73 771.33 125.11 770.51C126.49 769.67 128.11 769.25 129.97 769.25ZM129.97 771.5C127.91 771.5 126.28 772.21 125.08 773.63C123.9 775.03 123.31 776.97 123.31 779.45C123.31 781.93 123.9 783.88 125.08 785.3C126.28 786.7 127.91 787.4 129.97 787.4C132.03 787.4 133.65 786.7 134.83 785.3C136.03 783.88 136.63 781.93 136.63 779.45C136.63 776.97 136.03 775.03 134.83 773.63C133.65 772.21 132.03 771.5 129.97 771.5ZM158.796 781.13H154.056V789.35H151.656V769.55H159.156C161.176 769.55 162.796 770.07 164.016 771.11C165.236 772.15 165.846 773.56 165.846 775.34C165.846 776.74 165.456 777.92 164.676 778.88C163.896 779.84 162.826 780.5 161.466 780.86L167.046 789.35H164.196L158.796 781.13ZM154.056 778.88H159.126C161.926 778.88 163.326 777.7 163.326 775.34C163.326 772.98 161.926 771.8 159.126 771.8H154.056V778.88ZM184.447 787.1V789.35H170.107V769.55H183.997V771.8H172.507V778.19H181.447V780.44H172.507V787.1H184.447ZM206.878 789.35H204.598V776.9L204.868 771.68H204.838L198.328 789.35H196.288L189.778 771.68H189.748L190.018 776.9V789.35H187.738V769.55H191.428L195.778 781.58L197.278 786.53H197.338L198.868 781.61L203.188 769.55H206.878V789.35ZM219.824 769.25C221.684 769.25 223.304 769.67 224.684 770.51C226.064 771.33 227.124 772.51 227.864 774.05C228.624 775.57 229.004 777.37 229.004 779.45C229.004 781.53 228.624 783.34 227.864 784.88C227.124 786.4 226.064 787.58 224.684 788.42C223.304 789.24 221.684 789.65 219.824 789.65C217.964 789.65 216.344 789.24 214.964 788.42C213.584 787.58 212.514 786.4 211.754 784.88C211.014 783.34 210.644 781.53 210.644 779.45C210.644 777.37 211.014 775.57 211.754 774.05C212.514 772.51 213.584 771.33 214.964 770.51C216.344 769.67 217.964 769.25 219.824 769.25ZM219.824 771.5C217.764 771.5 216.134 772.21 214.934 773.63C213.754 775.03 213.164 776.97 213.164 779.45C213.164 781.93 213.754 783.88 214.934 785.3C216.134 786.7 217.764 787.4 219.824 787.4C221.884 787.4 223.504 786.7 224.684 785.3C225.884 783.88 226.484 781.93 226.484 779.45C226.484 776.97 225.884 775.03 224.684 773.63C223.504 772.21 221.884 771.5 219.824 771.5ZM246.031 771.8H239.131V789.35H236.731V771.8H229.831V769.55H246.031V771.8ZM263.057 787.1V789.35H248.717V769.55H262.607V771.8H251.117V778.19H260.057V780.44H251.117V787.1H263.057Z" fill="black"/>
<path d="M22.24 727.2H29.29C31.57 727.2 33.26 727.68 34.36 728.64C35.48 729.58 36.04 730.92 36.04 732.66C36.04 733.7 35.74 734.62 35.14 735.42C34.56 736.22 33.75 736.72 32.71 736.92V736.95C33.87 737.17 34.8 737.7 35.5 738.54C36.2 739.38 36.55 740.35 36.55 741.45C36.55 743.15 35.91 744.5 34.63 745.5C33.35 746.5 31.56 747 29.26 747H22.24V727.2ZM29.32 735.9C30.74 735.9 31.79 735.64 32.47 735.12C33.17 734.58 33.52 733.76 33.52 732.66C33.52 730.52 32.12 729.45 29.32 729.45H24.64V735.9H29.32ZM29.83 744.75C31.23 744.75 32.28 744.47 32.98 743.91C33.68 743.33 34.03 742.51 34.03 741.45C34.03 740.39 33.68 739.58 32.98 739.02C32.28 738.44 31.23 738.15 29.83 738.15H24.64V744.75H29.83ZM51.1766 741.51H42.2066L40.1066 747H37.5866L45.2966 727.2H48.1466L55.8266 747H53.2766L51.1766 741.51ZM50.3066 739.26L47.6366 732.24L46.7066 729.48H46.6466L45.7766 732.15L43.0766 739.26H50.3066ZM64.477 726.9C68.017 726.9 70.567 728.3 72.127 731.1L70.057 732.78C69.457 731.46 68.737 730.53 67.897 729.99C67.077 729.43 65.947 729.15 64.507 729.15C62.987 729.15 61.787 729.47 60.907 730.11C60.047 730.73 59.617 731.53 59.617 732.51C59.617 733.15 59.787 733.68 60.127 734.1C60.467 734.52 61.027 734.89 61.807 735.21C62.607 735.51 63.707 735.78 65.107 736.02C67.727 736.46 69.577 737.12 70.657 738C71.757 738.88 72.307 740.1 72.307 741.66C72.307 742.78 71.987 743.77 71.347 744.63C70.727 745.47 69.837 746.13 68.677 746.61C67.517 747.07 66.177 747.3 64.657 747.3C62.657 747.3 60.947 746.91 59.527 746.13C58.127 745.35 57.057 744.31 56.317 743.01L58.387 741.33C58.927 742.51 59.717 743.43 60.757 744.09C61.817 744.73 63.137 745.05 64.717 745.05C66.277 745.05 67.517 744.77 68.437 744.21C69.357 743.63 69.817 742.82 69.817 741.78C69.817 740.9 69.417 740.2 68.617 739.68C67.817 739.16 66.397 738.72 64.357 738.36C61.717 737.9 59.847 737.24 58.747 736.38C57.647 735.52 57.097 734.32 57.097 732.78C57.097 731.72 57.397 730.74 57.997 729.84C58.597 728.94 59.457 728.23 60.577 727.71C61.697 727.17 62.997 726.9 64.477 726.9ZM90.1757 744.75V747H75.8357V727.2H89.7257V729.45H78.2357V735.84H87.1757V738.09H78.2357V744.75H90.1757ZM99.8566 727.2C102.977 727.2 105.417 728.06 107.177 729.78C108.937 731.5 109.817 733.94 109.817 737.1C109.817 740.26 108.937 742.7 107.177 744.42C105.417 746.14 102.977 747 99.8566 747H93.4666V727.2H99.8566ZM100.097 744.75C102.357 744.75 104.117 744.08 105.377 742.74C106.657 741.38 107.297 739.5 107.297 737.1C107.297 734.7 106.657 732.83 105.377 731.49C104.117 730.13 102.357 729.45 100.097 729.45H95.8666V744.75H100.097ZM124.712 747H122.312V727.2H124.712V747ZM145.229 747H142.259L133.979 733.74L131.879 729.84H131.849L131.969 733.02V747H129.689V727.2H132.659L140.909 740.4L143.039 744.36H143.069L142.949 741.18V727.2H145.229V747ZM165.935 727.2C167.935 727.2 169.545 727.75 170.765 728.85C171.985 729.93 172.595 731.39 172.595 733.23C172.595 735.07 171.985 736.54 170.765 737.64C169.545 738.72 167.935 739.26 165.935 739.26H161.345V747H158.945V727.2H165.935ZM165.575 737.01C167.115 737.01 168.245 736.7 168.965 736.08C169.705 735.44 170.075 734.49 170.075 733.23C170.075 731.97 169.705 731.03 168.965 730.41C168.245 729.77 167.115 729.45 165.575 729.45H161.345V737.01H165.575ZM185.45 741.51H176.48L174.38 747H171.86L179.57 727.2H182.42L190.1 747H187.55L185.45 741.51ZM184.58 739.26L181.91 732.24L180.98 729.48H180.92L180.05 732.15L177.35 739.26H184.58ZM199.765 738.78H195.025V747H192.625V727.2H200.125C202.145 727.2 203.765 727.72 204.985 728.76C206.205 729.8 206.815 731.21 206.815 732.99C206.815 734.39 206.425 735.57 205.645 736.53C204.865 737.49 203.795 738.15 202.435 738.51L208.015 747H205.165L199.765 738.78ZM195.025 736.53H200.095C202.895 736.53 204.295 735.35 204.295 732.99C204.295 730.63 202.895 729.45 200.095 729.45H195.025V736.53ZM213.476 747H211.076V727.2H213.476V747ZM224.813 726.9C228.353 726.9 230.903 728.3 232.463 731.1L230.393 732.78C229.793 731.46 229.073 730.53 228.233 729.99C227.413 729.43 226.283 729.15 224.843 729.15C223.323 729.15 222.123 729.47 221.243 730.11C220.383 730.73 219.953 731.53 219.953 732.51C219.953 733.15 220.123 733.68 220.463 734.1C220.803 734.52 221.363 734.89 222.143 735.21C222.943 735.51 224.043 735.78 225.443 736.02C228.063 736.46 229.913 737.12 230.993 738C232.093 738.88 232.643 740.1 232.643 741.66C232.643 742.78 232.323 743.77 231.683 744.63C231.063 745.47 230.173 746.13 229.013 746.61C227.853 747.07 226.513 747.3 224.993 747.3C222.993 747.3 221.283 746.91 219.863 746.13C218.463 745.35 217.393 744.31 216.653 743.01L218.723 741.33C219.263 742.51 220.053 743.43 221.093 744.09C222.153 744.73 223.473 745.05 225.053 745.05C226.613 745.05 227.853 744.77 228.773 744.21C229.693 743.63 230.153 742.82 230.153 741.78C230.153 740.9 229.753 740.2 228.953 739.68C228.153 739.16 226.733 738.72 224.693 738.36C222.053 737.9 220.183 737.24 219.083 736.38C217.983 735.52 217.433 734.32 217.433 732.78C217.433 731.72 217.733 730.74 218.333 729.84C218.933 728.94 219.793 728.23 220.913 727.71C222.033 727.17 223.333 726.9 224.813 726.9Z" fill="black"/>
<path d="M24.2873 24.438C26.4113 24.438 27.9413 25.278 28.8773 26.958L27.6353 27.966C27.2753 27.174 26.8433 26.616 26.3393 26.292C25.8473 25.956 25.1693 25.788 24.3053 25.788C23.3933 25.788 22.6733 25.98 22.1453 26.364C21.6293 26.736 21.3713 27.216 21.3713 27.804C21.3713 28.188 21.4733 28.506 21.6773 28.758C21.8813 29.01 22.2173 29.232 22.6853 29.424C23.1653 29.604 23.8253 29.766 24.6653 29.91C26.2373 30.174 27.3473 30.57 27.9953 31.098C28.6553 31.626 28.9853 32.358 28.9853 33.294C28.9853 33.966 28.7933 34.56 28.4093 35.076C28.0373 35.58 27.5033 35.976 26.8073 36.264C26.1113 36.54 25.3073 36.678 24.3953 36.678C23.1953 36.678 22.1693 36.444 21.3173 35.976C20.4773 35.508 19.8353 34.884 19.3913 34.104L20.6333 33.096C20.9573 33.804 21.4313 34.356 22.0553 34.752C22.6913 35.136 23.4833 35.328 24.4313 35.328C25.3673 35.328 26.1113 35.16 26.6633 34.824C27.2153 34.476 27.4913 33.99 27.4913 33.366C27.4913 32.838 27.2513 32.418 26.7713 32.106C26.2913 31.794 25.4393 31.53 24.2153 31.314C22.6313 31.038 21.5093 30.642 20.8493 30.126C20.1893 29.61 19.8593 28.89 19.8593 27.966C19.8593 27.33 20.0393 26.742 20.3993 26.202C20.7593 25.662 21.2753 25.236 21.9473 24.924C22.6193 24.6 23.3993 24.438 24.2873 24.438ZM32.5426 36.498H31.1026V24.618H32.5426V36.498ZM44.8528 36.498H43.0708L38.1028 28.542L36.8428 26.202H36.8248L36.8968 28.11V36.498H35.5288V24.618H37.3108L42.2608 32.538L43.5388 34.914H43.5568L43.4848 33.006V24.618H44.8528V36.498ZM57.4235 33.456C57.0515 34.464 56.4395 35.256 55.5875 35.832C54.7355 36.396 53.7515 36.678 52.6355 36.678C51.5195 36.678 50.5475 36.432 49.7195 35.94C48.8915 35.436 48.2495 34.728 47.7935 33.816C47.3495 32.892 47.1275 31.806 47.1275 30.558C47.1275 29.322 47.3495 28.242 47.7935 27.318C48.2495 26.394 48.8915 25.686 49.7195 25.194C50.5475 24.69 51.5075 24.438 52.5995 24.438C53.7395 24.438 54.6935 24.672 55.4615 25.14C56.2415 25.608 56.8235 26.298 57.2075 27.21L55.7855 27.876C55.5215 27.18 55.1375 26.658 54.6335 26.31C54.1295 25.962 53.4875 25.788 52.7075 25.788C51.8915 25.788 51.1775 25.98 50.5655 26.364C49.9535 26.736 49.4795 27.282 49.1435 28.002C48.8075 28.722 48.6395 29.574 48.6395 30.558C48.6395 32.046 48.9935 33.216 49.7015 34.068C50.4215 34.908 51.3995 35.328 52.6355 35.328C53.4395 35.328 54.1355 35.124 54.7235 34.716C55.3115 34.308 55.7315 33.708 55.9835 32.916L57.4235 33.456ZM67.8914 35.148V36.498H59.2874V24.618H67.6214V25.968H60.7274V29.802H66.0914V31.152H60.7274V35.148H67.8914ZM78.4126 26.004H77.2426L75.4786 22.998H77.0446L78.4126 26.004ZM86.7826 24.618V36.498H85.3426V27.786C85.3426 27.534 85.3546 27.072 85.3786 26.4C84.9706 26.796 84.4966 27.144 83.9566 27.444C83.4166 27.732 82.8646 27.942 82.3006 28.074L81.9226 26.76C82.2106 26.724 82.6006 26.592 83.0926 26.364C83.5846 26.124 84.0586 25.848 84.5146 25.536C84.9706 25.212 85.3066 24.906 85.5226 24.618H86.7826ZM97.1899 24.618V25.968C95.7139 27.516 94.6339 29.148 93.9499 30.864C93.2779 32.58 92.9419 34.458 92.9419 36.498H91.4659C91.4659 34.554 91.8139 32.688 92.5099 30.9C93.2179 29.1 94.2559 27.456 95.6239 25.968H88.4419V24.618H97.1899Z" fill="black"/>
<path d="M62.7636 669.061C63.3494 668.475 63.3494 667.525 62.7636 666.939L53.2177 657.393C52.6319 656.808 51.6822 656.808 51.0964 657.393C50.5106 657.979 50.5106 658.929 51.0964 659.515L59.5816 668L51.0964 676.485C50.5106 677.071 50.5106 678.021 51.0964 678.607C51.6822 679.192 52.6319 679.192 53.2177 678.607L62.7636 669.061ZM22 669.5H61.703V666.5H22V669.5Z" fill="black"/>
<path d="M30.048 871.072C30.2613 871.072 30.4747 871.045 30.688 870.992L30.608 872C30.3093 872.107 29.9893 872.16 29.648 872.16C29.232 872.16 28.9013 872.069 28.656 871.888C28.4213 871.707 28.272 871.403 28.208 870.976C27.9627 871.349 27.6 871.643 27.12 871.856C26.6507 872.059 26.1547 872.16 25.632 872.16C24.8427 872.16 24.192 871.979 23.68 871.616C23.168 871.243 22.912 870.709 22.912 870.016C22.912 869.408 23.1787 868.885 23.712 868.448C24.2453 868 25.0187 867.691 26.032 867.52L28.16 867.168V866.72C28.16 866.187 27.9947 865.76 27.664 865.44C27.3333 865.12 26.8747 864.96 26.288 864.96C25.7547 864.96 25.2907 865.088 24.896 865.344C24.512 865.6 24.2133 865.979 24 866.48L23.056 865.792C23.2693 865.195 23.664 864.72 24.24 864.368C24.8267 864.016 25.5093 863.84 26.288 863.84C27.2373 863.84 28 864.069 28.576 864.528C29.152 864.987 29.44 865.664 29.44 866.56V870.496C29.44 870.688 29.488 870.832 29.584 870.928C29.68 871.024 29.8347 871.072 30.048 871.072ZM25.696 871.04C26.368 871.04 26.944 870.88 27.424 870.56C27.9147 870.24 28.16 869.824 28.16 869.312V868.208L26.368 868.544C25.6533 868.672 25.12 868.859 24.768 869.104C24.416 869.339 24.24 869.643 24.24 870.016C24.24 870.347 24.368 870.603 24.624 870.784C24.88 870.955 25.2373 871.04 25.696 871.04ZM39.7249 864L36.3969 872H35.1169L31.7889 864H33.2449L35.7729 870.704L38.3809 864H39.7249ZM48.5543 871.072C48.7676 871.072 48.9809 871.045 49.1943 870.992L49.1143 872C48.8156 872.107 48.4956 872.16 48.1543 872.16C47.7383 872.16 47.4076 872.069 47.1623 871.888C46.9276 871.707 46.7783 871.403 46.7143 870.976C46.4689 871.349 46.1063 871.643 45.6263 871.856C45.1569 872.059 44.6609 872.16 44.1383 872.16C43.3489 872.16 42.6983 871.979 42.1863 871.616C41.6743 871.243 41.4183 870.709 41.4183 870.016C41.4183 869.408 41.6849 868.885 42.2183 868.448C42.7516 868 43.5249 867.691 44.5383 867.52L46.6663 867.168V866.72C46.6663 866.187 46.5009 865.76 46.1703 865.44C45.8396 865.12 45.3809 864.96 44.7943 864.96C44.2609 864.96 43.7969 865.088 43.4023 865.344C43.0183 865.6 42.7196 865.979 42.5063 866.48L41.5623 865.792C41.7756 865.195 42.1703 864.72 42.7463 864.368C43.3329 864.016 44.0156 863.84 44.7943 863.84C45.7436 863.84 46.5063 864.069 47.0823 864.528C47.6583 864.987 47.9463 865.664 47.9463 866.56V870.496C47.9463 870.688 47.9943 870.832 48.0903 870.928C48.1863 871.024 48.3409 871.072 48.5543 871.072ZM44.2023 871.04C44.8743 871.04 45.4503 870.88 45.9303 870.56C46.4209 870.24 46.6663 869.824 46.6663 869.312V868.208L44.8743 868.544C44.1596 868.672 43.6263 868.859 43.2743 869.104C42.9223 869.339 42.7463 869.643 42.7463 870.016C42.7463 870.347 42.8743 870.603 43.1303 870.784C43.3863 870.955 43.7436 871.04 44.2023 871.04ZM52.4967 862.464C52.2087 862.464 51.9741 862.379 51.7927 862.208C51.6221 862.027 51.5367 861.792 51.5367 861.504C51.5367 861.216 51.6221 860.987 51.7927 860.816C51.9741 860.635 52.2087 860.544 52.4967 860.544C52.7847 860.544 53.0141 860.635 53.1847 860.816C53.3661 860.987 53.4567 861.216 53.4567 861.504C53.4567 861.792 53.3661 862.027 53.1847 862.208C53.0141 862.379 52.7847 862.464 52.4967 862.464ZM53.1367 872H51.8567V864H53.1367V872ZM58.1228 869.856C58.1228 870.261 58.1814 870.544 58.2988 870.704C58.4268 870.853 58.6561 870.928 58.9868 870.928C59.2108 870.928 59.4028 870.912 59.5628 870.88C59.7334 870.848 59.9308 870.789 60.1548 870.704L59.9468 871.936C59.5948 872.085 59.2001 872.16 58.7628 872.16C58.1121 872.16 57.6268 871.984 57.3068 871.632C56.9974 871.28 56.8428 870.741 56.8428 870.016V860.32H58.1228V869.856ZM69.1574 871.072C69.3707 871.072 69.584 871.045 69.7974 870.992L69.7174 872C69.4187 872.107 69.0987 872.16 68.7574 872.16C68.3414 872.16 68.0107 872.069 67.7654 871.888C67.5307 871.707 67.3814 871.403 67.3174 870.976C67.072 871.349 66.7094 871.643 66.2294 871.856C65.76 872.059 65.264 872.16 64.7414 872.16C63.952 872.16 63.3014 871.979 62.7894 871.616C62.2774 871.243 62.0214 870.709 62.0214 870.016C62.0214 869.408 62.288 868.885 62.8214 868.448C63.3547 868 64.128 867.691 65.1414 867.52L67.2694 867.168V866.72C67.2694 866.187 67.104 865.76 66.7734 865.44C66.4427 865.12 65.984 864.96 65.3974 864.96C64.864 864.96 64.4 865.088 64.0054 865.344C63.6214 865.6 63.3227 865.979 63.1094 866.48L62.1654 865.792C62.3787 865.195 62.7734 864.72 63.3494 864.368C63.936 864.016 64.6187 863.84 65.3974 863.84C66.3467 863.84 67.1094 864.069 67.6854 864.528C68.2614 864.987 68.5494 865.664 68.5494 866.56V870.496C68.5494 870.688 68.5974 870.832 68.6934 870.928C68.7894 871.024 68.944 871.072 69.1574 871.072ZM64.8054 871.04C65.4774 871.04 66.0534 870.88 66.5334 870.56C67.024 870.24 67.2694 869.824 67.2694 869.312V868.208L65.4774 868.544C64.7627 868.672 64.2294 868.859 63.8774 869.104C63.5254 869.339 63.3494 869.643 63.3494 870.016C63.3494 870.347 63.4774 870.603 63.7334 870.784C63.9894 870.955 64.3467 871.04 64.8054 871.04ZM76.3959 863.84C77.5159 863.84 78.4012 864.213 79.0519 864.96C79.7132 865.696 80.0439 866.709 80.0439 868C80.0439 869.291 79.7132 870.309 79.0519 871.056C78.4012 871.792 77.5159 872.16 76.3959 872.16C75.7772 872.16 75.2225 872.021 74.7319 871.744C74.2519 871.456 73.8945 871.077 73.6599 870.608L73.5799 872H72.4599V860.32H73.7399V865.248C73.9959 864.821 74.3532 864.48 74.8119 864.224C75.2812 863.968 75.8092 863.84 76.3959 863.84ZM76.2519 871.04C77.0305 871.04 77.6439 870.768 78.0919 870.224C78.5399 869.669 78.7639 868.928 78.7639 868C78.7639 867.072 78.5399 866.336 78.0919 865.792C77.6439 865.237 77.0305 864.96 76.2519 864.96C75.4839 864.96 74.8705 865.227 74.4119 865.76C73.9639 866.293 73.7399 867.008 73.7399 867.904V868.096C73.7399 868.992 73.9639 869.707 74.4119 870.24C74.8705 870.773 75.4839 871.04 76.2519 871.04ZM84.554 869.856C84.554 870.261 84.6127 870.544 84.73 870.704C84.858 870.853 85.0873 870.928 85.418 870.928C85.642 870.928 85.834 870.912 85.994 870.88C86.1647 870.848 86.362 870.789 86.586 870.704L86.378 871.936C86.026 872.085 85.6313 872.16 85.194 872.16C84.5433 872.16 84.058 871.984 83.738 871.632C83.4287 871.28 83.274 870.741 83.274 870.016V860.32H84.554V869.856ZM95.8926 867.584C95.8926 867.883 95.8713 868.181 95.8286 868.48H89.7966C89.8713 869.291 90.138 869.92 90.5966 870.368C91.066 870.816 91.6686 871.04 92.4046 871.04C92.9913 871.04 93.4766 870.939 93.8606 870.736C94.2553 870.533 94.522 870.24 94.6606 869.856L95.7326 870.416C95.4126 870.981 94.986 871.413 94.4526 871.712C93.9193 872.011 93.2366 872.16 92.4046 872.16C91.1993 872.16 90.25 871.792 89.5566 871.056C88.874 870.32 88.5326 869.301 88.5326 868C88.5326 866.699 88.858 865.68 89.5086 864.944C90.17 864.208 91.1033 863.84 92.3086 863.84C93.0553 863.84 93.7006 864.005 94.2446 864.336C94.7886 864.667 95.1993 865.115 95.4766 865.68C95.754 866.245 95.8926 866.88 95.8926 867.584ZM92.3086 864.96C91.6046 864.96 91.034 865.168 90.5966 865.584C90.17 866 89.9086 866.587 89.8126 867.344H94.6606C94.5753 866.597 94.33 866.016 93.9246 865.6C93.5193 865.173 92.9806 864.96 92.3086 864.96ZM110.611 868.48H105.331V867.152H110.611V868.48ZM121.228 860.544C121.495 860.544 121.719 860.64 121.9 860.832C122.092 861.013 122.188 861.237 122.188 861.504C122.188 861.771 122.092 862 121.9 862.192C121.719 862.373 121.495 862.464 121.228 862.464C120.961 862.464 120.732 862.373 120.54 862.192C120.359 862 120.268 861.771 120.268 861.504C120.268 861.237 120.359 861.013 120.54 860.832C120.732 860.64 120.961 860.544 121.228 860.544ZM121.868 872.816C121.868 873.723 121.623 874.384 121.132 874.8C120.652 875.227 120.087 875.44 119.436 875.44C119.116 875.44 118.817 875.392 118.54 875.296C118.263 875.2 118.028 875.072 117.836 874.912L118.108 873.696C118.481 874.027 118.919 874.192 119.42 874.192C120.199 874.192 120.588 873.691 120.588 872.688V864H121.868V872.816ZM132.198 871.072C132.411 871.072 132.625 871.045 132.838 870.992L132.758 872C132.459 872.107 132.139 872.16 131.798 872.16C131.382 872.16 131.051 872.069 130.806 871.888C130.571 871.707 130.422 871.403 130.358 870.976C130.113 871.349 129.75 871.643 129.27 871.856C128.801 872.059 128.305 872.16 127.782 872.16C126.993 872.16 126.342 871.979 125.83 871.616C125.318 871.243 125.062 870.709 125.062 870.016C125.062 869.408 125.329 868.885 125.862 868.448C126.395 868 127.169 867.691 128.182 867.52L130.31 867.168V866.72C130.31 866.187 130.145 865.76 129.814 865.44C129.483 865.12 129.025 864.96 128.438 864.96C127.905 864.96 127.441 865.088 127.046 865.344C126.662 865.6 126.363 865.979 126.15 866.48L125.206 865.792C125.419 865.195 125.814 864.72 126.39 864.368C126.977 864.016 127.659 863.84 128.438 863.84C129.387 863.84 130.15 864.069 130.726 864.528C131.302 864.987 131.59 865.664 131.59 866.56V870.496C131.59 870.688 131.638 870.832 131.734 870.928C131.83 871.024 131.985 871.072 132.198 871.072ZM127.846 871.04C128.518 871.04 129.094 870.88 129.574 870.56C130.065 870.24 130.31 869.824 130.31 869.312V868.208L128.518 868.544C127.803 868.672 127.27 868.859 126.918 869.104C126.566 869.339 126.39 869.643 126.39 870.016C126.39 870.347 126.518 870.603 126.774 870.784C127.03 870.955 127.387 871.04 127.846 871.04ZM139.388 863.84C140.295 863.84 141.042 864.101 141.628 864.624C142.215 865.147 142.508 865.899 142.508 866.88V872H141.228V867.328C141.228 866.496 141.047 865.893 140.684 865.52C140.332 865.147 139.858 864.96 139.26 864.96C138.834 864.96 138.434 865.056 138.06 865.248C137.687 865.429 137.378 865.733 137.132 866.16C136.898 866.576 136.78 867.104 136.78 867.744V872H135.5V864H136.62L136.7 865.248C136.967 864.768 137.335 864.416 137.804 864.192C138.274 863.957 138.802 863.84 139.388 863.84ZM153.135 864V872H152.015L151.935 870.784C151.401 871.701 150.447 872.16 149.071 872.16C148.207 872.16 147.497 871.92 146.943 871.44C146.399 870.96 146.127 870.224 146.127 869.232V864H147.407V868.896C147.407 869.675 147.567 870.229 147.887 870.56C148.207 870.88 148.676 871.04 149.295 871.04C150.031 871.04 150.639 870.816 151.119 870.368C151.609 869.92 151.855 869.248 151.855 868.352V864H153.135ZM163.473 871.072C163.686 871.072 163.9 871.045 164.113 870.992L164.033 872C163.734 872.107 163.414 872.16 163.073 872.16C162.657 872.16 162.326 872.069 162.081 871.888C161.846 871.707 161.697 871.403 161.633 870.976C161.388 871.349 161.025 871.643 160.545 871.856C160.076 872.059 159.58 872.16 159.057 872.16C158.268 872.16 157.617 871.979 157.105 871.616C156.593 871.243 156.337 870.709 156.337 870.016C156.337 869.408 156.604 868.885 157.137 868.448C157.67 868 158.444 867.691 159.457 867.52L161.585 867.168V866.72C161.585 866.187 161.42 865.76 161.089 865.44C160.758 865.12 160.3 864.96 159.713 864.96C159.18 864.96 158.716 865.088 158.321 865.344C157.937 865.6 157.638 865.979 157.425 866.48L156.481 865.792C156.694 865.195 157.089 864.72 157.665 864.368C158.252 864.016 158.934 863.84 159.713 863.84C160.662 863.84 161.425 864.069 162.001 864.528C162.577 864.987 162.865 865.664 162.865 866.56V870.496C162.865 870.688 162.913 870.832 163.009 870.928C163.105 871.024 163.26 871.072 163.473 871.072ZM159.121 871.04C159.793 871.04 160.369 870.88 160.849 870.56C161.34 870.24 161.585 869.824 161.585 869.312V868.208L159.793 868.544C159.078 868.672 158.545 868.859 158.193 869.104C157.841 869.339 157.665 869.643 157.665 870.016C157.665 870.347 157.793 870.603 158.049 870.784C158.305 870.955 158.662 871.04 159.121 871.04ZM170.552 863.84C170.936 863.84 171.229 863.893 171.432 864L171.176 865.248C170.92 865.109 170.584 865.04 170.168 865.04C169.826 865.04 169.49 865.141 169.16 865.344C168.84 865.536 168.573 865.835 168.36 866.24C168.157 866.635 168.056 867.115 168.056 867.68V872H166.776V864H167.816L167.992 865.312C168.44 864.331 169.293 863.84 170.552 863.84ZM177.147 873.344C176.837 874.112 176.491 874.651 176.107 874.96C175.723 875.28 175.227 875.44 174.619 875.44C174.213 875.44 173.872 875.387 173.595 875.28C173.328 875.173 173.083 875.003 172.859 874.768L173.307 873.68C173.616 874.107 174.048 874.32 174.603 874.32C174.912 874.32 175.184 874.224 175.419 874.032C175.664 873.851 175.877 873.515 176.059 873.024L176.475 871.984L173.131 864H174.587L176.587 869.216L177.083 870.64L177.659 869.056L179.531 864H180.907L177.147 873.344ZM189.012 870.96C190.473 869.883 191.593 868.997 192.372 868.304C193.151 867.6 193.705 866.965 194.036 866.4C194.377 865.824 194.548 865.221 194.548 864.592C194.548 863.963 194.345 863.456 193.94 863.072C193.535 862.677 192.991 862.48 192.308 862.48C191.593 862.48 191.012 862.715 190.564 863.184C190.127 863.653 189.871 864.288 189.796 865.088L188.676 864.416C188.815 863.467 189.199 862.709 189.828 862.144C190.468 861.568 191.311 861.28 192.356 861.28C193.06 861.28 193.679 861.419 194.212 861.696C194.756 861.973 195.172 862.363 195.46 862.864C195.748 863.365 195.892 863.941 195.892 864.592C195.892 865.275 195.727 865.931 195.396 866.56C195.076 867.189 194.548 867.851 193.812 868.544C193.076 869.237 192.084 870 190.836 870.832V870.848C191.54 870.816 192.068 870.8 192.42 870.8H196.116V872H189.012V870.96ZM202.932 872.16C201.652 872.16 200.676 871.696 200.004 870.768C199.332 869.84 198.996 868.491 198.996 866.72C198.996 864.949 199.332 863.6 200.004 862.672C200.676 861.744 201.652 861.28 202.932 861.28C204.212 861.28 205.188 861.744 205.86 862.672C206.532 863.6 206.868 864.949 206.868 866.72C206.868 868.491 206.532 869.84 205.86 870.768C205.188 871.696 204.212 872.16 202.932 872.16ZM202.932 871.008C203.775 871.008 204.42 870.645 204.868 869.92C205.316 869.184 205.54 868.117 205.54 866.72C205.54 865.323 205.316 864.261 204.868 863.536C204.42 862.8 203.775 862.432 202.932 862.432C202.09 862.432 201.444 862.8 200.996 863.536C200.548 864.261 200.324 865.323 200.324 866.72C200.324 868.117 200.548 869.184 200.996 869.92C201.444 870.645 202.09 871.008 202.932 871.008ZM209.893 870.96C211.355 869.883 212.475 868.997 213.253 868.304C214.032 867.6 214.587 866.965 214.917 866.4C215.259 865.824 215.429 865.221 215.429 864.592C215.429 863.963 215.227 863.456 214.821 863.072C214.416 862.677 213.872 862.48 213.189 862.48C212.475 862.48 211.893 862.715 211.445 863.184C211.008 863.653 210.752 864.288 210.677 865.088L209.557 864.416C209.696 863.467 210.08 862.709 210.709 862.144C211.349 861.568 212.192 861.28 213.237 861.28C213.941 861.28 214.56 861.419 215.093 861.696C215.637 861.973 216.053 862.363 216.341 862.864C216.629 863.365 216.773 863.941 216.773 864.592C216.773 865.275 216.608 865.931 216.277 866.56C215.957 867.189 215.429 867.851 214.693 868.544C213.957 869.237 212.965 870 211.717 870.832V870.848C212.421 870.816 212.949 870.8 213.301 870.8H216.997V872H209.893V870.96ZM223.813 872.16C222.533 872.16 221.557 871.696 220.885 870.768C220.213 869.84 219.877 868.491 219.877 866.72C219.877 864.949 220.213 863.6 220.885 862.672C221.557 861.744 222.533 861.28 223.813 861.28C225.093 861.28 226.069 861.744 226.741 862.672C227.413 863.6 227.749 864.949 227.749 866.72C227.749 868.491 227.413 869.84 226.741 870.768C226.069 871.696 225.093 872.16 223.813 872.16ZM223.813 871.008C224.656 871.008 225.301 870.645 225.749 869.92C226.197 869.184 226.421 868.117 226.421 866.72C226.421 865.323 226.197 864.261 225.749 863.536C225.301 862.8 224.656 862.432 223.813 862.432C222.971 862.432 222.325 862.8 221.877 863.536C221.429 864.261 221.205 865.323 221.205 866.72C221.205 868.117 221.429 869.184 221.877 869.92C222.325 870.645 222.971 871.008 223.813 871.008Z" fill="black"/>
</svg>
