<svg width="360" height="232" viewBox="0 0 360 232" fill="none" xmlns="http://www.w3.org/2000/svg">
<rect width="360" height="232" fill="#95FFD9"/>
<path d="M289.265 203.518V215.478L296.585 218.278V221.638L270.185 211.358V207.558L296.585 197.318V200.718L289.265 203.518ZM286.265 204.678L276.905 208.238L273.225 209.478V209.558L276.785 210.718L286.265 214.318V204.678ZM296.585 173.232V177.192L278.905 188.232L273.705 191.032V191.072L277.945 190.912H296.585V193.952H270.185V189.992L287.785 178.992L293.065 176.152V176.112L288.825 176.272H270.185V173.232H296.585ZM296.585 145.857V149.817L278.905 160.857L273.705 163.657V163.697L277.945 163.537H296.585V166.577H270.185V162.617L287.785 151.617L293.065 148.777V148.737L288.825 148.897H270.185V145.857H296.585ZM289.265 124.362V136.322L296.585 139.122V142.482L270.185 132.202V128.402L296.585 118.162V121.562L289.265 124.362ZM286.265 125.522L276.905 129.082L273.225 130.322V130.402L276.785 131.562L286.265 135.162V125.522ZM317.185 218.358V208.958C317.185 205.918 317.825 203.665 319.105 202.198C320.358 200.705 322.145 199.958 324.465 199.958C325.852 199.958 327.078 200.358 328.145 201.158C329.212 201.932 329.878 203.012 330.145 204.398H330.185C330.478 202.852 331.185 201.612 332.305 200.678C333.425 199.745 334.718 199.278 336.185 199.278C338.452 199.278 340.252 200.132 341.585 201.838C342.918 203.545 343.585 205.932 343.585 208.998V218.358H317.185ZM328.785 208.918C328.785 207.025 328.438 205.625 327.745 204.718C327.025 203.785 325.932 203.318 324.465 203.318C321.612 203.318 320.185 205.185 320.185 208.918V215.158H328.785V208.918ZM340.585 208.238C340.585 206.372 340.212 204.972 339.465 204.038C338.692 203.105 337.598 202.638 336.185 202.638C334.772 202.638 333.692 203.105 332.945 204.038C332.172 204.972 331.785 206.372 331.785 208.238V215.158H340.585V208.238ZM340.585 175.106H343.585V194.226H317.185V175.706H320.185V191.026H328.705V179.106H331.705V191.026H340.585V175.106ZM343.585 149.998V153.958L325.905 164.998L320.705 167.798V167.838L324.945 167.678H343.585V170.718H317.185V166.758L334.785 155.758L340.065 152.918V152.878L335.825 153.038H317.185V149.998H343.585ZM317.185 134.823C317.185 130.663 318.332 127.41 320.625 125.063C322.918 122.716 326.172 121.543 330.385 121.543C334.598 121.543 337.852 122.716 340.145 125.063C342.438 127.41 343.585 130.663 343.585 134.823V143.343H317.185V134.823ZM340.585 134.503C340.585 131.49 339.692 129.143 337.905 127.463C336.092 125.756 333.585 124.903 330.385 124.903C327.185 124.903 324.692 125.756 322.905 127.463C321.092 129.143 320.185 131.49 320.185 134.503V140.143H340.585V134.503ZM336.265 102.573V114.533L343.585 117.333V120.693L317.185 110.413V106.613L343.585 96.3732V99.7732L336.265 102.573ZM333.265 103.733L323.905 107.293L320.225 108.533V108.613L323.785 109.773L333.265 113.373V103.733ZM317.185 72.2869H343.585V75.4869H331.705V89.8069H343.585V93.0069H317.185V89.8069H328.705V75.4869H317.185V72.2869ZM336.265 50.7919V62.7519L343.585 65.5519V68.9119L317.185 58.6319V54.8319L343.585 44.5919V47.9919L336.265 50.7919ZM333.265 51.9519L323.905 55.5119L320.225 56.7519V56.8319L323.785 57.9919L333.265 61.5919V51.9519ZM343.585 20.5057V24.4657L325.905 35.5057L320.705 38.3057V38.3457L324.945 38.1857H343.585V41.2257H317.185V37.2657L334.785 26.2657L340.065 23.4257V23.3857L335.825 23.5457H317.185V20.5057H343.585Z" fill="white"/>
</svg>
